<svg width="1224" height="979" xmlns="http://www.w3.org/2000/svg" xmlns:xlink="http://www.w3.org/1999/xlink" overflow="hidden"><defs><clipPath id="clip0"><rect x="1588" y="748" width="1224" height="979"/></clipPath></defs><g clip-path="url(#clip0)" transform="translate(-1588 -748)"><path d="M1730 1716.19C1714.71 1722.73 1697.23 1726 1678.66 1726 1622.95 1726 1588 1696.58 1588 1648.63 1588 1600.69 1626.23 1568 1681.94 1568 1699.42 1568 1713.62 1571.27 1730 1577.81 1730 1610.5 1730 1610.5 1730 1610.5 1714.71 1601.78 1701.6 1598.51 1685.22 1598.51 1650.26 1598.51 1628.42 1618.12 1628.42 1647.54 1628.42 1676.97 1649.17 1695.49 1684.12 1695.49 1700.51 1695.49 1713.62 1691.13 1730 1682.41L1730 1716.19Z" fill="#FFFFFF" fill-rule="evenodd"/><path d="M1829.15 1566C1876.36 1566 1906 1596.67 1906 1645.95 1906 1695.24 1875.26 1727 1826.95 1727 1778.64 1727 1749 1696.33 1749 1648.14 1749 1597.76 1779.74 1566 1829.15 1566ZM1826.95 1697.43C1852.2 1697.43 1867.57 1678.81 1867.57 1647.05 1867.57 1615.29 1853.3 1596.67 1828.05 1596.67 1802.8 1596.67 1787.43 1615.29 1787.43 1647.05 1787.43 1678.81 1801.7 1697.43 1826.95 1697.43Z" fill="#FFFFFF" fill-rule="evenodd"/><path d="M1930 1570.18C1934.35 1570.18 1934.35 1570.18 1934.35 1570.18 1951.75 1569.09 1965.89 1568 1980.04 1568 2005.05 1568 2021.37 1571.27 2033.33 1580.01 2047.47 1588.74 2054 1602.93 2054 1619.3 2054 1636.77 2046.39 1652.05 2031.16 1659.69 2018.11 1666.24 2002.88 1669.51 1982.21 1669.51 1978.95 1669.51 1975.68 1669.51 1969.16 1669.51 1969.16 1723 1969.16 1723 1969.16 1723 1930 1723 1930 1723 1930 1723L1930 1570.18ZM1969.16 1640.04C1973.51 1641.13 1976.77 1641.13 1978.95 1641.13 2005.05 1641.13 2014.84 1634.58 2014.84 1619.3 2014.84 1604.02 2005.05 1596.38 1984.39 1596.38 1980.04 1596.38 1976.77 1596.38 1969.16 1597.47L1969.16 1640.04Z" fill="#FFFFFF" fill-rule="evenodd"/><path d="M2226 1662.23C2191.98 1662.23 2191.98 1662.23 2191.98 1662.23 2189.78 1656.81 2187.59 1650.3 2184.29 1643.79 2174.41 1619.91 2168.93 1605.81 2154.66 1575.43 2152.46 1570 2152.46 1570 2152.46 1570 2114.05 1570 2114.05 1570 2114.05 1570 2111.85 1574.34 2111.85 1574.34 2111.85 1574.34 2108.56 1580.85 2108.56 1580.85 2108.56 1580.85 2105.27 1588.45 2105.27 1588.45 2105.27 1588.45 2099.78 1601.47 2097.59 1604.72 2096.49 1607.98 2091 1618.83 2085.51 1630.77 2080.02 1642.7 2066.85 1672 2055.88 1696.96 2049.29 1716.49 2046 1723 2046 1723 2046 1723 2088.8 1723 2088.8 1723 2088.8 1723 2089.9 1719.74 2089.9 1719.74 2089.9 1719.74 2098.68 1694.79 2098.68 1694.79 2098.68 1694.79 2100.88 1690.45 2100.88 1690.45 2100.88 1690.45 2159.05 1690.45 2159.05 1690.45 2159.05 1690.45 2161.24 1690.45 2161.24 1690.45 2161.24 1690.45 2162.34 1693.7 2162.34 1693.7 2162.34 1693.7 2168.93 1719.74 2168.93 1719.74 2168.93 1719.74 2170.02 1723 2170.02 1723 2170.02 1723 2215.02 1723 2215.02 1723 2215.02 1723 2212.83 1716.49 2212.83 1716.49 2212.83 1716.49 2208.44 1706.72 2206.24 1698.04 2202.95 1690.45 2226 1690.45 2226 1690.45 2226 1690.45L2226 1662.23ZM2108.56 1662.23C2132.71 1600.38 2132.71 1600.38 2132.71 1600.38 2146.98 1649.21 2146.98 1649.21 2146.98 1649.21 2151.37 1662.23 2151.37 1662.23 2151.37 1662.23 2130.51 1662.23 2130.51 1662.23 2130.51 1662.23L2108.56 1662.23Z" fill="#FFFFFF" fill-rule="evenodd"/><path d="M2475.02 1649.21C2479.41 1662.23 2479.41 1662.23 2479.41 1662.23 2457.45 1662.23 2457.45 1662.23 2457.45 1662.23 2435.49 1662.23 2435.49 1662.23 2435.49 1662.23 2440.98 1648.13 2440.98 1648.13 2440.98 1648.13 2459.65 1600.38 2459.65 1600.38 2459.65 1600.38L2475.02 1649.21ZM2488.2 1690.45C2495.88 1719.74 2495.88 1719.74 2495.88 1719.74 2496.98 1723 2496.98 1723 2496.98 1723 2542 1723 2542 1723 2542 1723 2539.8 1716.49 2539.8 1716.49 2539.8 1716.49 2527.73 1685.02 2521.14 1667.66 2512.35 1643.79 2502.47 1619.91 2495.88 1605.81 2482.71 1575.43 2479.41 1570 2479.41 1570 2479.41 1570 2442.08 1570 2442.08 1570 2442.08 1570 2438.78 1574.34 2438.78 1574.34 2438.78 1574.34 2436.59 1580.85 2436.59 1580.85 2436.59 1580.85 2433.29 1588.45 2433.29 1588.45 2433.29 1588.45 2426.71 1601.47 2424.51 1604.72 2423.41 1607.98 2417.92 1618.83 2413.53 1630.77 2406.94 1642.7 2393.76 1672 2383.88 1696.96 2376.2 1716.49 2374 1723 2374 1723 2374 1723 2415.73 1723 2415.73 1723 2415.73 1723 2417.92 1719.74 2417.92 1719.74 2417.92 1719.74 2426.71 1694.79 2426.71 1694.79 2426.71 1694.79 2428.9 1690.45 2428.9 1690.45 2428.9 1690.45 2487.1 1690.45 2487.1 1690.45 2487.1 1690.45L2488.2 1690.45Z" fill="#FFFFFF" fill-rule="evenodd"/><path d="M2241 1572.18C2246.47 1572.18 2246.47 1572.18 2246.47 1572.18 2259.61 1571.09 2273.83 1570 2284.78 1570 2316.52 1570 2338.41 1575.45 2354.83 1588.55 2371.24 1600.55 2380 1621.27 2380 1646.36 2380 1673.64 2370.15 1695.45 2352.64 1708.55 2335.13 1721.64 2315.43 1726 2282.59 1726 2269.46 1726 2254.13 1726 2241 1724.91L2241 1572.18ZM2277.12 1694.36C2284.78 1695.45 2288.06 1695.45 2291.35 1695.45 2325.28 1695.45 2342.79 1679.09 2342.79 1647.45 2342.79 1634.36 2338.41 1622.36 2330.75 1614.73 2323.09 1606 2311.05 1601.64 2292.44 1601.64 2288.06 1601.64 2283.69 1601.64 2277.12 1601.64L2277.12 1694.36Z" fill="#FFFFFF" fill-rule="evenodd"/><path d="M2579.98 1606.87 2527 1606.87 2527 1570 2672 1570 2672 1606.87 2619.48 1606.87 2619.48 1723 2579.98 1723 2579.98 1606.87Z" fill="#FFFFFF" fill-rule="evenodd"/><path d="M2744.36 1649.21C2748.73 1662.23 2748.73 1662.23 2748.73 1662.23 2728 1662.23 2728 1662.23 2728 1662.23 2705.09 1662.23 2705.09 1662.23 2705.09 1662.23 2710.55 1648.13 2710.55 1648.13 2710.55 1648.13 2729.09 1600.38 2729.09 1600.38 2729.09 1600.38L2744.36 1649.21ZM2757.45 1690.45C2765.09 1719.74 2765.09 1719.74 2765.09 1719.74 2766.18 1723 2766.18 1723 2766.18 1723 2812 1723 2812 1723 2812 1723 2808.73 1716.49 2808.73 1716.49 2808.73 1716.49 2797.82 1685.02 2791.27 1667.66 2781.45 1643.79 2771.64 1619.91 2766.18 1605.81 2752 1575.43 2749.82 1570 2749.82 1570 2749.82 1570 2711.64 1570 2711.64 1570 2711.64 1570 2709.45 1574.34 2709.45 1574.34 2709.45 1574.34 2706.18 1580.85 2706.18 1580.85 2706.18 1580.85 2702.91 1588.45 2702.91 1588.45 2702.91 1588.45 2696.36 1601.47 2695.27 1604.72 2693.09 1607.98 2688.73 1618.83 2683.27 1630.77 2677.82 1642.7 2664.73 1672 2653.82 1696.96 2646.18 1716.49 2644 1723 2644 1723 2644 1723 2686.55 1723 2686.55 1723 2686.55 1723 2687.64 1719.74 2687.64 1719.74 2687.64 1719.74 2696.36 1694.79 2696.36 1694.79 2696.36 1694.79 2698.55 1690.45 2698.55 1690.45 2698.55 1690.45 2756.36 1690.45 2756.36 1690.45 2756.36 1690.45L2757.45 1690.45Z" fill="#FFFFFF" fill-rule="evenodd"/><path d="M2386.4 1170.87C2347.06 1230.96 2259.62 1400.33 2151.41 1375.2 2116.43 1366.45 2093.48 1351.16 2071.62 1329.3 2063.97 1321.65 2056.32 1311.82 2048.67 1304.17 2048.67 1304.17 2048.67 1304.17 2048.67 1304.17 2048.67 1303.08 2047.57 1303.08 2048.67 1303.08 2048.67 1301.99 2048.67 1301.99 2048.67 1301.99 2048.67 1301.99 2048.67 1301.99 2048.67 1301.99 2141.57 1311.82 2192.94 1251.72 2239.94 1203.65 2269.45 1171.96 2295.68 1134.81 2323.01 1099.84 2430.12 964.35 2552.54 861.638 2793 866.009 2793 864.916 2793 864.916 2793 864.916 2793 781.873 2793 781.873 2793 781.873 2793 764.39 2793 764.39 2793 764.39 2793 754.556 2785.35 748 2776.6 748 2759.12 748 2759.12 748 2759.12 748 2200.59 748 2200.59 748 2200.59 748 2198.41 748 2198.41 748 2198.41 748 1640.98 748 1640.98 748 1640.98 748 1622.4 748 1622.4 748 1622.4 748 1613.65 748 1606 754.556 1606 764.39 1606 781.873 1606 781.873 1606 781.873 1606 1099.84 1606 1099.84 1606 1099.84 1606 1099.84 1606 1099.84 1606 1099.84 1730.6 1099.84 1883.62 1095.47 1975.43 1135.9 2032.27 1159.94 2082.55 1240.8 2139.38 1252.82 2139.38 1252.82 2139.38 1252.82 2139.38 1252.82 2141.57 1252.82 2142.66 1252.82 2142.66 1253.91 2142.66 1255 2142.66 1255 2142.66 1256.09 2141.57 1256.09 2141.57 1256.09 2141.57 1256.09 2028.99 1328.21 1998.39 1225.5 1936.09 1176.33 1916.41 1159.94 1892.37 1145.73 1866.13 1135.9 1798.37 1108.58 1691.25 1112.95 1606 1112.95 1606 1112.95 1606 1112.95 1606 1112.95 1606 1445.13 1606 1445.13 1606 1445.13 1606 1463.7 1606 1463.7 1606 1463.7 1606 1472.44 1613.65 1479 1622.4 1479 1640.98 1479 1640.98 1479 1640.98 1479 2190.76 1479 2190.76 1479 2190.76 1479 2208.24 1479 2208.24 1479 2208.24 1479 2759.12 1479 2759.12 1479 2759.12 1479 2776.6 1479 2776.6 1479 2776.6 1479 2785.35 1479 2793 1472.44 2793 1463.7 2793 1445.13 2793 1445.13 2793 1445.13 2793 883.492 2793 883.492 2793 883.492 2556.91 883.492 2483.68 1026.63 2386.4 1170.87Z" fill="#FFFFFF" fill-rule="evenodd"/></g></svg>